<svg xmlns="http://www.w3.org/2000/svg" width="231" height="96" viewBox="0 0 231 96" role="img" aria-label="Czip">
  <title>Czip</title>
  <defs>
    <linearGradient id="g" x1="0" y1="0" x2="1" y2="1">
      <stop offset="0%" stop-color="#00FFCC"/>
      <stop offset="55%" stop-color="#1FB6FF"/>
      <stop offset="100%" stop-color="#8A2BE2"/>
    </linearGradient>
    <filter id="glow" x="-30%" y="-30%" width="160%" height="160%">
      <feGaussianBlur stdDeviation="3" result="b"/>
      <feMerge><feMergeNode in="b"/><feMergeNode in="SourceGraphic"/></feMerge>
    </filter>
  </defs>
  <g fill="url(#g)" filter="url(#glow)">
    <path d="M176 0 Q143 0 115 16 Q88 32 72 59 Q56 87 56 120 L56 600 Q56 633 72 660 Q88 688 115 704 Q143 720 176 720 L774 720 L774 639 L176 639 Q160 639 148 627 Q137 616 137 600 L137 120 Q137 104 148 92 Q160 81 176 81 L774 81 L774 0 L176 0 Z" transform="translate(36.00,70.0) scale(0.05104,-0.05104)"/>
    <path d="M51 0 L51 0 L51 111 L679 639 L51 639 L51 720 L771 720 L771 609 L143 81 L771 81 L771 0 L51 0 Z" transform="translate(85.95,70.0) scale(0.05104,-0.05104)"/>
    <path d="M66 0 L66 720 L148 720 L148 0 L66 0 Z" transform="translate(135.85,70.0) scale(0.05104,-0.05104)"/>
    <path d="M56 0 L56 719 L656 719 Q689 719 716 702 Q744 686 760 659 Q776 632 776 599 L776 388 Q776 355 760 328 Q744 301 716 284 Q689 268 656 268 L137 268 L137 0 L56 0 M176 350 L656 350 Q672 350 683 361 Q695 372 695 388 L695 599 Q695 615 683 626 Q672 638 656 638 L176 638 Q160 638 148 626 Q137 615 137 599 L137 388 Q137 372 148 361 Q160 350 176 350 Z" transform="translate(154.78,70.0) scale(0.05104,-0.05104)"/>
  </g>
</svg>
